<?xml version="1.0"?>
<svg width="24" height="24" xmlns="http://www.w3.org/2000/svg" xmlns:svg="http://www.w3.org/2000/svg">
 <g class="layer">
  <title>Layer 1</title>
  <path clip-rule="evenodd" d="m13,21c0,0.55 -0.45,1 -1,1c-0.55,0 -1,-0.45 -1,-1l0,-3.86c0,-0.55 0.45,-1 1,-1c0.55,0 1,0.45 1,1l0,3.86zm0,-14.14c0,0.55 -0.45,1 -1,1c-0.55,0 -1,-0.45 -1,-1l0,-3.86c0,-0.55 0.45,-1 1,-1c0.55,0 1,0.45 1,1l0,3.86zm-8.07,12.21c0.39,0.39 1.02,0.39 1.41,0l2.73,-2.73c0.39,-0.39 0.39,-1.02 0,-1.41c-0.39,-0.39 -1.02,-0.39 -1.41,0l-2.73,2.73c-0.39,0.39 -0.39,1.02 0,1.41zm10,-10c0.39,0.39 1.02,0.39 1.41,0l2.73,-2.73c0.39,-0.39 0.39,-1.02 0,-1.41c-0.39,-0.39 -1.02,-0.39 -1.41,0l-2.73,2.73c-0.39,0.39 -0.39,1.02 0,1.41zm-12.93,2.93c0,0.55 0.45,1 1,1l3.86,0c0.55,0 1,-0.45 1,-1c0,-0.55 -0.45,-1 -1,-1l-3.86,0c-0.55,0 -1,0.45 -1,1zm14.14,0c0,0.55 0.45,1 1,1l3.86,0c0.55,0 1,-0.45 1,-1c0,-0.55 -0.45,-1 -1,-1l-3.86,0c-0.55,0 -1,0.45 -1,1zm2.93,7.07c-0.39,0.39 -1.02,0.39 -1.41,0l-2.73,-2.73c-0.39,-0.39 -0.39,-1.02 0,-1.41c0.39,-0.39 1.02,-0.39 1.41,0l2.73,2.73c0.39,0.39 0.39,1.02 0,1.41zm-10,-10c-0.39,0.39 -1.02,0.39 -1.41,0l-2.73,-2.73c-0.39,-0.39 -0.39,-1.02 0,-1.41c0.39,-0.39 1.02,-0.39 1.41,0l2.73,2.73c0.39,0.39 0.39,1.02 0,1.41z" fill="#ffffff" fill-rule="evenodd" id="svg_1"/>
 </g>
</svg>