<svg width="24" height="24" viewBox="0 0 24 24" fill="none" xmlns="http://www.w3.org/2000/svg">
<path fill-rule="evenodd" clip-rule="evenodd" d="M12.9997 20.9986C12.9997 21.5509 12.552 21.9986 11.9997 21.9986C11.4475 21.9986 10.9997 21.5509 10.9997 20.9986L10.9997 17.1425C10.9997 16.5902 11.4475 16.1425 11.9997 16.1425C12.552 16.1425 12.9997 16.5902 12.9997 17.1425L12.9997 20.9986ZM12.9997 6.85612C12.9997 7.4084 12.552 7.85612 11.9997 7.85612C11.4475 7.85612 10.9997 7.4084 10.9997 6.85612V3.00008C10.9997 2.44779 11.4475 2.00008 11.9997 2.00008C12.552 2.00008 12.9997 2.44779 12.9997 3.00008L12.9997 6.85612ZM4.92886 19.0695C5.31939 19.4601 5.95255 19.4601 6.34307 19.0695L9.06971 16.3429C9.46023 15.9524 9.46023 15.3192 9.06971 14.9287C8.67918 14.5382 8.04602 14.5382 7.65549 14.9287L4.92886 17.6553C4.53834 18.0458 4.53834 18.679 4.92886 19.0695ZM14.9291 9.06927C15.3196 9.45979 15.9528 9.45979 16.3433 9.06927L19.0699 6.34263C19.4605 5.95211 19.4605 5.31894 19.0699 4.92842C18.6794 4.53789 18.0463 4.5379 17.6557 4.92842L14.9291 7.65505C14.5386 8.04558 14.5386 8.67874 14.9291 9.06927ZM2 11.9988C2 12.5511 2.44772 12.9988 3 12.9988H6.85604C7.40833 12.9988 7.85604 12.5511 7.85604 11.9988C7.85604 11.4465 7.40833 10.9988 6.85604 10.9988H3C2.44772 10.9988 2 11.4465 2 11.9988ZM16.1425 11.9988C16.1425 12.5511 16.5902 12.9988 17.1425 12.9988H20.9985C21.5508 12.9988 21.9985 12.5511 21.9985 11.9988C21.9985 11.4465 21.5508 10.9988 20.9985 10.9988H17.1425C16.5902 10.9988 16.1425 11.4465 16.1425 11.9988ZM19.0707 19.0695C18.6801 19.4601 18.047 19.4601 17.6564 19.0695L14.9298 16.3429C14.5393 15.9524 14.5393 15.3192 14.9298 14.9287C15.3203 14.5382 15.9535 14.5382 16.344 14.9287L19.0707 17.6553C19.4612 18.0458 19.4612 18.679 19.0707 19.0695ZM9.07041 9.06926C8.67989 9.45979 8.04672 9.45979 7.6562 9.06926L4.92957 6.34263C4.53904 5.95211 4.53904 5.31894 4.92957 4.92842C5.32009 4.53789 5.95326 4.5379 6.34378 4.92842L9.07041 7.65505C9.46094 8.04558 9.46094 8.67874 9.07041 9.06926Z" fill="#758295"/>
</svg>
