<svg width="20" height="20" viewBox="0 0 20 20" fill="none" xmlns="http://www.w3.org/2000/svg">
<path fill-rule="evenodd" clip-rule="evenodd" d="M7.33827 16.425H5.39244C4.38911 16.425 3.57494 15.6117 3.57494 14.6075V13.4142C3.57494 12.9325 3.38327 12.47 3.04244 12.1292L2.19827 11.285C1.48827 10.575 1.48827 9.425 2.19827 8.715L3.04244 7.87083C3.38327 7.53 3.57494 7.06833 3.57494 6.58583V5.3925C3.57494 4.38917 4.38827 3.575 5.39244 3.575H6.58577C7.06744 3.575 7.52994 3.38333 7.87077 3.0425L8.71494 2.19833C9.42494 1.48833 10.5749 1.48833 11.2849 2.19833L12.1291 3.0425C12.4699 3.38333 12.9324 3.575 13.4141 3.575H14.6074C15.6108 3.575 16.4249 4.38833 16.4249 5.3925V6.58583C16.4249 7.0675 16.6166 7.53 16.9574 7.87083L17.8016 8.715C18.5116 9.425 18.5116 10.575 17.8016 11.285L16.9574 12.1292C16.6166 12.47 16.4249 12.9325 16.4249 13.4142V14.6075C16.4249 15.6108 15.6116 16.425 14.6074 16.425H13.4141C12.9324 16.425 12.4699 16.6167 12.1291 16.9575L11.2849 17.8017C10.5749 18.5117 9.42494 18.5117 8.71494 17.8017L7.33827 16.425Z" stroke="#8C79FF" stroke-width="1.5" stroke-linecap="round" stroke-linejoin="round"/>
<path d="M7.5 12.5L12.5 7.5" stroke="#8C79FF" stroke-width="1.5" stroke-linecap="round" stroke-linejoin="round"/>
<path d="M7.70758 7.50002C7.59258 7.50002 7.49925 7.59335 7.50008 7.70835C7.50008 7.82335 7.59342 7.91669 7.70842 7.91669C7.82342 7.91669 7.91675 7.82335 7.91675 7.70835C7.91675 7.59335 7.82342 7.50002 7.70758 7.50002" stroke="#8C79FF" stroke-width="1.5" stroke-linecap="round" stroke-linejoin="round"/>
<path d="M12.2908 12.0833C12.1758 12.0833 12.0825 12.1767 12.0833 12.2917C12.0833 12.4067 12.1767 12.5 12.2917 12.5C12.4067 12.5 12.5 12.4067 12.5 12.2917C12.5 12.1767 12.4067 12.0833 12.2908 12.0833" stroke="#8C79FF" stroke-width="1.5" stroke-linecap="round" stroke-linejoin="round"/>
</svg>
